<?xml version="1.0" encoding="UTF-8"?>
<svg id="Layer_1" xmlns="http://www.w3.org/2000/svg" xmlns:xlink="http://www.w3.org/1999/xlink" viewBox="0 0 599.84 764.9">
  <defs>
    <style>
      .cls-1 {
        fill: url(#linear-gradient);
      }

      .cls-2 {
        fill: #ededed;
      }
    </style>
    <linearGradient id="linear-gradient" x1="299.92" y1="649.16" x2="299.92" y2="49.31" gradientUnits="userSpaceOnUse">
      <stop offset="0" stop-color="#111827"/>
      <stop offset="1" stop-color="#1f2937"/>
    </linearGradient>
  </defs>
  <rect class="cls-1" y="47.42" width="599.84" height="599.84"/>
  <path class="cls-2" d="M224.38,588.8c-22.5-7.73-41.72-19.79-57.65-36.21-15.94-16.4-28.24-37.37-36.91-62.92-8.68-25.54-13.01-56.12-13.01-91.75v-254.5c0-12.18,3.52-22.02,10.55-29.53,7.03-7.49,17.1-11.25,30.23-11.25,12.18,0,22.02,3.76,29.53,11.25,7.49,7.5,11.25,17.35,11.25,29.53v254.5c0,46.4,8.32,79.92,24.96,100.53,16.63,20.63,41.59,30.93,74.87,30.93s58.23-10.3,74.87-30.93c16.63-20.62,24.96-54.13,24.96-100.53v-254.5c0-12.18,3.62-22.02,10.9-29.53,7.26-7.49,17.22-11.25,29.88-11.25s22.61,3.76,29.88,11.25c7.26,7.5,10.9,17.35,10.9,29.53v253.8c0,35.62-4.34,66.33-13.01,92.1-8.68,25.78-20.98,46.87-36.91,63.27-15.94,16.41-35.15,28.47-57.65,36.21s-47.1,11.6-73.82,11.6-51.32-3.87-73.82-11.6Z"/>
</svg>